<svg width="31" height="32" viewBox="0 0 31 32" fill="none" xmlns="http://www.w3.org/2000/svg">
<g clip-path="url(#clip0_23_165)">
<path d="M15.6864 30.5V21C15.6864 20.724 15.5478 20 15.2601 20C14.9724 20 14.644 20.224 14.644 20.5V30.5C14.644 30.776 14.9714 31 15.2601 31C15.5488 31 15.6864 30.776 15.6864 30.5Z" fill="#00FF00"/>
<path d="M15.7753 0.562V-0.5C15.7753 -0.632608 15.7204 -0.759785 15.6226 -0.853553C15.5249 -0.947322 15.3923 -1 15.2541 -1C15.1159 -1 14.9833 -0.947322 14.8856 -0.853553C14.7878 -0.759785 14.7329 -0.632608 14.7329 -0.5V0.562C14.7329 0.694608 14.7878 0.821785 14.8856 0.915553C14.9833 1.00932 15.1159 1.062 15.2541 1.062C15.3923 1.062 15.5249 1.00932 15.6226 0.915553C15.7204 0.821785 15.7753 0.694608 15.7753 0.562Z" fill="#00FF00"/>
<path d="M4.10126 2.471L0.383077 5.269C0.277583 5.36209 0.193234 5.47505 0.135303 5.60083C0.0773719 5.72661 0.0471026 5.86249 0.0463867 6C0.0463867 6.275 0.169388 6.542 0.415391 6.758L4.06895 9.503C4.38896 9.786 4.95915 10 5.39591 10H19.81C20.4073 10 20.8941 9.537 20.8941 8.967V3.033C20.8941 2.463 20.4073 2 19.81 2H5.39591C4.95915 2 4.38896 2.214 4.10126 2.471ZM19.8517 8.967C19.8517 8.982 19.8329 9 19.81 9H5.39591C5.2187 9 4.90494 8.883 4.74442 8.742L1.05854 6.029L4.77569 3.231C4.90599 3.117 5.2187 3 5.39591 3L19.8517 3.033V8.967Z" fill="#00FF00"/>
<path d="M26.2446 11.497C25.9246 11.214 25.3544 11 24.9176 11H10.5035C9.90623 11 9.41943 11.463 9.41943 12.033V17.968C9.41943 18.537 9.90623 19 10.5035 19H24.9176C25.3544 19 25.9246 18.786 26.2133 18.529L29.9304 15.731C30.0359 15.6379 30.1203 15.5249 30.1782 15.3992C30.2361 15.2734 30.2664 15.1375 30.2671 15C30.265 14.8558 30.231 14.7137 30.1674 14.583C30.1038 14.4524 30.012 14.3361 29.8981 14.242L26.2446 11.497ZM10.4618 12H24.9176C25.0948 12 25.4086 12.117 25.5691 12.258L29.255 14.971L25.5378 17.769C25.3585 17.9015 25.1432 17.9817 24.9176 18H10.4618V12Z" fill="#00FF00"/>
</g>
<defs>
<clipPath id="clip0_23_165">
<rect width="30.2292" height="32" fill="white" transform="translate(0.0463867)"/>
</clipPath>
</defs>
</svg>
