<svg width="25" height="24" viewBox="0 0 25 24" fill="none" xmlns="http://www.w3.org/2000/svg">
<path d="M2.92957 15.789L2.22053 16.4927C1.30024 17.406 1.30024 18.8867 2.22053 19.8001C2.23143 19.8109 2.24864 19.8122 2.26114 19.8033L4.78144 17.9969C5.06468 17.7939 5.45452 17.8249 5.70157 18.07L6.31882 18.6826C6.56587 18.9278 6.59711 19.3147 6.39255 19.5958L4.57429 22.0943C4.56413 22.1082 4.56569 22.1274 4.57795 22.1396C5.61328 23.1671 7.29187 23.1671 8.32719 22.1396L8.77943 21.6908C9.74922 20.7284 10.0653 19.2935 9.5888 18.0172L9.37059 17.4328C9.35535 17.392 9.36546 17.3461 9.39647 17.3154L18.0018 8.77526C18.0328 8.74448 18.0791 8.73445 18.1202 8.74957L18.7091 8.96613C19.9951 9.43907 21.4409 9.12534 22.4107 8.1629L22.8629 7.71409C23.8982 6.68661 23.8982 5.02075 22.8629 3.99327C22.8506 3.9811 22.8313 3.97956 22.8172 3.98964L20.2996 5.79411C20.0164 5.99712 19.6266 5.96612 19.3795 5.72094L18.7623 5.10837C18.5152 4.86319 18.484 4.47631 18.6885 4.19521L20.5087 1.69402C20.5178 1.68162 20.5164 1.66454 20.5055 1.65372C19.5852 0.740405 18.0931 0.740405 17.1728 1.65372L16.4638 2.35738C15.5162 3.29783 15.1765 4.68445 15.5835 5.95165L15.7156 6.36324C15.7278 6.40124 15.7176 6.44282 15.6892 6.47102L7.07463 15.0203C7.04622 15.0485 7.00432 15.0586 6.96603 15.0465L6.55129 14.9153C5.27442 14.5115 3.8772 14.8486 2.92957 15.789Z" stroke="#00FF00" stroke-width="1.4" stroke-linecap="round" stroke-linejoin="round"/>
<path d="M12.657 14.7419L17.8025 21.0648C18.1856 21.5356 18.8016 21.7547 19.3989 21.6326V21.6326C20.8865 21.3286 22.049 20.1753 22.3555 18.6993V18.6993C22.4785 18.1067 22.2576 17.4956 21.7832 17.1155L15.41 12.0106" stroke="#00FF00" stroke-width="1.4"/>
<path d="M10.3744 11.2121L5.91974 6.79119L4.94053 6.76071C4.60168 6.75016 4.29108 6.57058 4.11472 6.28324L2.55908 3.74868L4.32859 1.99258L6.88251 3.53643C7.17204 3.71146 7.353 4.0197 7.36362 4.35598L7.39434 5.32777L11.849 9.74868" stroke="#00FF00" stroke-width="1.4"/>
</svg>
