<svg width="40" height="28" viewBox="0 0 40 28" fill="none" xmlns="http://www.w3.org/2000/svg">
<path d="M26.3657 14.2086L39.7446 22.8881V5.1626L26.3657 14.2086Z" fill="white"/>
<path d="M0.0693359 5.16261V22.8881L13.4481 14.2086L0.0693359 5.16261Z" fill="white"/>
<path d="M37.2696 0H2.54502C1.31506 0 0.33107 0.947268 0.140625 2.16661L19.9073 15.5321L39.674 2.16661C39.4835 0.947268 38.4995 0 37.2696 0Z" fill="white"/>
<path d="M24.096 15.7464L20.5886 18.1183C20.3823 18.2584 20.1443 18.3276 19.9062 18.3276C19.6682 18.3276 19.4301 18.2584 19.2238 18.1183L15.7164 15.744L0.147461 25.8513C0.337907 27.06 1.31396 28 2.54392 28H37.2606C38.4985 28 39.4745 27.06 39.665 25.8513L24.096 15.7464Z" fill="white"/>
</svg>
