<svg width="22" height="20" viewBox="0 0 22 20" fill="none" xmlns="http://www.w3.org/2000/svg">
<path d="M1.4 12V13.6H4.6102L0 18.8688L0.9898 20L5.6 14.7312V18.4H7V12H1.4Z" fill="white"/>
<path d="M16 10H17.5V5.71429H21.25V4.28571H17.5V1.42857H22V0H16V10Z" fill="white"/>
<path d="M11 0H8V10H11C11.7956 10 12.5587 9.69898 13.1213 9.16316C13.6839 8.62734 14 7.90062 14 7.14286V2.85714C14 2.09938 13.6839 1.37266 13.1213 0.836838C12.5587 0.30102 11.7956 0 11 0ZM12.5 7.14286C12.5 7.52174 12.342 7.8851 12.0607 8.15301C11.7794 8.42092 11.3978 8.57143 11 8.57143H9.5V1.42857H11C11.3978 1.42857 11.7794 1.57908 12.0607 1.84699C12.342 2.1149 12.5 2.47826 12.5 2.85714V7.14286Z" fill="white"/>
<path d="M4.5 0H0V10H1.5V6.42857H4.5C4.89782 6.42857 5.27936 6.27806 5.56066 6.01015C5.84196 5.74224 6 5.37888 6 5V1.42857C6 1.04969 5.84196 0.686328 5.56066 0.418419C5.27936 0.15051 4.89782 0 4.5 0ZM4.5 5H1.5V1.42857H4.5V5Z" fill="white"/>
</svg>
