<svg width="101" height="100" viewBox="0 0 101 100" fill="none" xmlns="http://www.w3.org/2000/svg">
<path fill-rule="evenodd" clip-rule="evenodd" d="M44.0512 0C48.027 0.0106787 52.0062 0.00362313 55.9855 0.00362313C56.6912 1.29822 57.2732 2.66363 58.081 3.90179C59.3406 3.03752 60.3529 1.86629 61.5135 0.875017C65.2389 2.23661 68.9642 3.5984 72.6966 4.93553C72.9012 6.417 73.067 7.90229 73.2999 9.37691C74.778 8.9394 76.1715 8.27281 77.5931 7.68713C80.6483 10.227 83.6785 12.7954 86.7265 15.3389C86.4125 16.8275 85.9998 18.2952 85.8269 19.8086C87.3581 19.7344 88.8925 19.6393 90.4342 19.6251C92.3851 23.0717 94.3888 26.4866 96.3608 29.9226C95.5389 31.182 94.6957 32.4274 93.9725 33.7468C95.4049 34.2581 96.8653 34.6993 98.3258 35.1438C99.0491 39.056 99.7122 42.9826 100.421 46.9018C99.229 47.7908 98.0365 48.6798 96.89 49.6217C97.9449 50.7647 99.4582 51.4421 100.432 52.6239C99.8535 56.5008 99.0562 60.3427 98.4388 64.2091C97.0102 64.6994 95.546 65.0909 94.1384 65.6378C94.9111 66.9642 95.7683 68.2378 96.5832 69.5431C94.5864 72.9684 92.618 76.4116 90.6248 79.8406C89.1221 79.8088 87.6262 79.6854 86.1268 79.6642C86.3631 81.1811 86.73 82.6699 87.0899 84.1586C84.0597 86.7549 81.001 89.3162 77.9248 91.8527C76.556 91.26 75.1837 90.6815 73.7903 90.1593C73.4799 91.6727 73.3388 93.2179 73.1235 94.749C69.3878 96.0788 65.6694 97.4547 61.9405 98.8024C60.8399 97.8038 59.7533 96.7986 58.6561 95.8002C57.7778 97.0595 57.1604 98.4743 56.4619 99.8325C52.472 99.8783 48.4856 99.8607 44.4992 99.8431C43.8183 98.52 43.1516 97.1902 42.4319 95.892C41.1938 96.8162 40.1318 97.9416 38.9747 98.9611C35.2495 97.6028 31.5206 96.2412 27.7882 94.8971C27.566 93.4507 27.4883 91.9761 27.1497 90.5509C25.6751 90.7379 24.3169 91.6657 22.8916 92.149C19.8472 89.5913 16.7851 87.0549 13.7617 84.4726C14.0899 83.005 14.4391 81.5445 14.7072 80.0665C13.1622 80.1087 11.6204 80.1794 10.0787 80.2217C8.10322 76.7821 6.11005 73.3566 4.13094 69.9241C4.93896 68.6434 5.82421 67.4123 6.49105 66.0506C5.05178 65.5918 3.61238 65.1298 2.16599 64.6995C1.44302 60.787 0.783168 56.8607 0.0741152 52.9449C1.26663 52.0347 2.4765 51.1458 3.6265 50.1792C2.45902 49.1806 1.21349 48.2778 0 47.3429C0.677398 43.434 1.397 39.5359 2.04961 35.6236C3.46778 35.1508 4.91067 34.7311 6.33227 34.2548C5.62678 32.8753 4.72716 31.6126 3.90166 30.3037C5.88078 26.8676 7.89155 23.4493 9.84245 19.9992C11.3558 20.0274 12.8657 20.1897 14.3791 20.1331C14.1004 18.6196 13.7335 17.1275 13.4125 15.6246C16.4606 13.0881 19.4909 10.5305 22.5283 7.98359C23.9288 8.5549 25.3117 9.17598 26.7404 9.68398C26.9768 8.15286 27.1426 6.61481 27.3754 5.08732C31.115 3.7678 34.8261 2.36031 38.5691 1.04092C39.6699 2.03213 40.6999 3.11169 41.8852 4.00781C42.7284 2.74131 43.321 1.3302 44.0512 0.000254255L44.0512 0ZM46.9759 15.8502C40.0931 16.4887 33.4362 19.2898 28.1693 23.7701C23.5973 27.6189 20.0554 32.6883 18.0446 38.3222C15.3141 45.868 15.367 54.3877 18.1822 61.9053C22.0239 72.372 31.2984 80.6307 42.164 83.1813C48.5458 84.7194 55.3719 84.4054 61.5667 82.2253C68.3437 79.865 74.3196 75.2932 78.3906 69.3877C85.4815 59.3545 86.4303 45.4271 80.8071 34.5086C77.4664 27.8552 71.8783 22.3591 65.1755 19.117C59.5629 16.3688 53.1917 15.2753 46.9758 15.8503L46.9759 15.8502ZM46.6268 19.7237C53.4741 18.8876 60.5966 20.4646 66.4245 24.1687C71.2753 27.199 75.2193 31.6406 77.6852 36.8017C80.5604 42.7601 81.3717 49.678 80.01 56.1479C78.8247 61.9511 75.8543 67.3592 71.6492 71.5185C66.8162 76.3302 60.3215 79.4489 53.5341 80.1509C47.2018 80.86 40.6612 79.4948 35.1403 76.3198C29.6899 73.2082 25.259 68.3682 22.6344 62.6708C19.9076 56.8218 19.1525 50.0873 20.4613 43.7726C21.8548 36.8722 25.767 30.5222 31.2809 26.1479C35.6624 22.6307 41.0423 20.3693 46.6267 19.7238L46.6268 19.7237ZM45.925 23.9675C37.1902 25.3363 29.4255 31.4783 26.0282 39.631C23.3509 45.8821 23.2555 53.174 25.7425 59.5028C27.7499 64.6744 31.4575 69.1548 36.1388 72.1288C41.3459 75.4694 47.7698 76.8454 53.894 75.9704C59.2986 75.2366 64.4492 72.746 68.3862 68.9679C72.3727 65.1965 75.1136 60.1449 76.1014 54.7474C77.1069 49.4027 76.4013 43.7549 74.1046 38.8266C71.6635 33.5595 67.4266 29.1499 62.2584 26.5076C57.2738 23.9323 51.4528 23.0505 45.9248 23.9676L45.925 23.9675ZM49.0471 27.3717C50.6769 26.3522 53.0405 27.7528 52.8924 29.679C52.9595 31.6122 50.5287 32.9175 48.9483 31.8239C47.3045 30.9031 47.3643 28.222 49.0471 27.3718V27.3717ZM31.7751 37.2882C33.6025 36.4627 35.765 38.3678 35.2288 40.2869C34.8797 42.153 32.3466 42.9328 30.9849 41.6381C29.5598 40.4562 30.0218 37.895 31.7751 37.2883V37.2882ZM67.1058 37.3482C68.8767 36.7237 70.8522 38.5088 70.3866 40.3362C70.101 42.1071 67.7831 43.042 66.3579 41.9343C64.6153 40.8335 65.0985 37.8422 67.1058 37.3482H67.1058ZM47.3117 38.029C53.0055 36.4943 59.4223 39.7753 61.5637 45.2504C63.8358 50.4609 61.8107 57.0367 57.0376 60.0987C52.3774 63.3442 45.5229 62.6564 41.5859 58.5712C37.6279 54.7399 36.8481 48.1749 39.8009 43.5253C41.4661 40.8089 44.2105 38.777 47.3114 38.0291L47.3117 38.029ZM48.2537 41.0769C45.114 41.7471 42.4575 44.2201 41.565 47.3034C40.5807 50.4254 41.4979 54.0309 43.8333 56.3204C46.1618 58.7156 49.8763 59.6083 53.0444 58.5429C57.3517 57.2445 60.1458 52.4257 59.112 48.0442C58.2336 43.2358 52.9949 39.8668 48.2536 41.0769L48.2537 41.0769ZM47.9998 44.0649C49.926 43.317 52.2084 43.6027 53.8876 44.8162C55.7785 46.1319 56.8086 48.5592 56.4452 50.8346C56.1808 52.7042 55.0165 54.4223 53.3725 55.3502C51.369 56.5354 48.6983 56.4543 46.7791 55.135C44.7014 53.7908 43.576 51.1345 44.0945 48.7144C44.4862 46.6294 46.0171 44.8127 47.9997 44.0648L47.9998 44.0649ZM31.4088 57.7102C33.0457 56.7259 35.3599 58.1512 35.2012 60.0597C35.2577 61.9787 32.8586 63.2594 31.2746 62.1976C29.5849 61.2662 29.673 58.5428 31.4088 57.7102ZM66.6793 57.8054C68.3975 56.9059 70.6551 58.5181 70.3235 60.4372C70.2319 62.3774 67.6494 63.4464 66.1819 62.194C64.6685 61.1179 64.9578 58.5145 66.6793 57.8055L66.6793 57.8054ZM49.0018 67.8947C50.6315 66.9705 52.8752 68.4064 52.7235 70.2725C52.7906 72.1457 50.4869 73.451 48.8994 72.4704C47.1109 71.5884 47.1708 68.6921 49.0016 67.8948L49.0018 67.8947Z" fill="#00FF00"/>
</svg>
