<svg width="44" height="44" viewBox="0 0 44 44" fill="none" xmlns="http://www.w3.org/2000/svg">
<path fill-rule="evenodd" clip-rule="evenodd" d="M19.2992 0C21.041 0.00470513 22.7843 0.00159638 24.5277 0.00159638C24.8368 0.57201 25.0918 1.17362 25.4457 1.71917C25.9976 1.33836 26.4411 0.822306 26.9495 0.385541C28.5817 0.985474 30.2137 1.58549 31.8489 2.17464C31.9386 2.82739 32.0112 3.48183 32.1132 4.13156C32.7608 3.93879 33.3713 3.64508 33.9941 3.38702C35.3326 4.50612 36.6602 5.63779 37.9956 6.75848C37.858 7.41437 37.6772 8.06104 37.6014 8.72786C38.2723 8.69517 38.9445 8.65327 39.6199 8.647C40.4746 10.1656 41.3525 11.6703 42.2164 13.1842C41.8563 13.7391 41.4869 14.2878 41.1701 14.8691C41.7976 15.0945 42.4374 15.2888 43.0773 15.4847C43.3941 17.2084 43.6847 18.9385 43.9953 20.6654C43.473 21.0571 42.9506 21.4488 42.4483 21.8638C42.9104 22.3674 43.5734 22.6659 44 23.1866C43.7466 24.8948 43.3973 26.5876 43.1268 28.2911C42.5009 28.5072 41.8594 28.6797 41.2427 28.9206C41.5813 29.5051 41.9568 30.0662 42.3138 30.6413C41.439 32.1506 40.5766 33.6677 39.7034 35.1786C39.0451 35.1645 38.3897 35.1102 37.7328 35.1008C37.8364 35.7692 37.9971 36.4252 38.1547 37.0811C36.8272 38.2251 35.4871 39.3536 34.1395 40.4712C33.5398 40.21 32.9386 39.9551 32.3281 39.7251C32.1921 40.3919 32.1303 41.0727 32.036 41.7473C30.3993 42.3332 28.7703 42.9395 27.1366 43.5333C26.6544 43.0933 26.1784 42.6504 25.6977 42.2105C25.3129 42.7654 25.0424 43.3887 24.7364 43.9871C22.9884 44.0073 21.2419 43.9996 19.4954 43.9918C19.1971 43.4089 18.905 42.8229 18.5897 42.2509C18.0473 42.6581 17.582 43.154 17.0751 43.6032C15.4431 43.0047 13.8094 42.4048 12.1742 41.8126C12.0769 41.1753 12.0428 40.5255 11.8945 39.8976C11.2484 39.98 10.6534 40.3888 10.029 40.6017C8.69522 39.4748 7.35366 38.3572 6.02911 37.2195C6.17289 36.5728 6.32589 35.9293 6.44335 35.2781C5.76648 35.2967 5.09101 35.3278 4.41556 35.3465C3.55008 33.8309 2.67686 32.3216 1.80979 30.8092C2.16379 30.245 2.55163 29.7025 2.84378 29.1025C2.21322 28.9004 1.58261 28.6968 0.948939 28.5072C0.632199 26.7834 0.343112 25.0534 0.0324704 23.3281C0.554921 22.927 1.08497 22.5353 1.5888 22.1094C1.07732 21.6695 0.531641 21.2717 0 20.8597C0.296773 19.1374 0.612037 17.4199 0.89795 15.6961C1.51926 15.4878 2.1514 15.3029 2.77422 15.093C2.46514 14.4852 2.07101 13.9288 1.70935 13.3521C2.57641 11.8381 3.45735 10.332 4.31205 8.81182C4.97508 8.82425 5.63657 8.89576 6.2996 8.87086C6.17749 8.20399 6.01675 7.54656 5.87612 6.88437C7.2115 5.76676 8.53911 4.63985 9.86981 3.51765C10.4834 3.76937 11.0892 4.04303 11.7152 4.26686C11.8187 3.59223 11.8914 2.91455 11.9934 2.24152C13.6317 1.66013 15.2576 1.03997 16.8974 0.458638C17.3797 0.895376 17.8309 1.37104 18.3502 1.76588C18.7196 1.20785 18.9792 0.586097 19.2992 0.000112027L19.2992 0ZM20.5805 6.98376C17.5651 7.26509 14.6487 8.49929 12.3412 10.4733C10.3382 12.1692 8.78643 14.4028 7.90549 16.8851C6.70924 20.2099 6.73241 23.9637 7.96578 27.2761C9.64884 31.8878 13.7121 35.5266 18.4724 36.6505C21.2683 37.3282 24.2589 37.1898 26.9729 36.2293C29.9419 35.1893 32.56 33.1749 34.3435 30.5729C37.4501 26.1522 37.8658 20.0156 35.4022 15.2048C33.9386 12.2733 31.4904 9.85163 28.5539 8.42311C26.095 7.21224 23.3037 6.73044 20.5805 6.98379L20.5805 6.98376ZM20.4276 8.69047C23.4274 8.32207 26.5478 9.01691 29.1011 10.649C31.2263 11.9841 32.9541 13.9412 34.0345 16.2152C35.2941 18.8405 35.6496 21.8886 35.053 24.7393C34.5337 27.2962 33.2323 29.6791 31.3901 31.5117C29.2727 33.6318 26.4273 35.0059 23.4537 35.3153C20.6795 35.6277 17.814 35.0262 15.3952 33.6272C13.0074 32.2562 11.0662 30.1237 9.91629 27.6134C8.72165 25.0362 8.39085 22.0689 8.96423 19.2866C9.57474 16.2462 11.2887 13.4484 13.7044 11.521C15.624 9.9713 17.981 8.97493 20.4275 8.69049L20.4276 8.69047ZM20.1201 10.5603C16.2933 11.1634 12.8915 13.8696 11.4032 17.4618C10.2302 20.2161 10.1884 23.429 11.278 26.2175C12.1574 28.4962 13.7818 30.4703 15.8327 31.7806C18.1139 33.2525 20.9283 33.8588 23.6114 33.4733C25.9792 33.15 28.2357 32.0526 29.9605 30.3879C31.707 28.7262 32.9078 26.5004 33.3406 24.1222C33.7811 21.7673 33.472 19.2788 32.4658 17.1074C31.3963 14.7866 29.5401 12.8437 27.2759 11.6795C25.0921 10.5448 22.5419 10.1563 20.12 10.5604L20.1201 10.5603ZM21.4879 12.0602C22.2019 11.611 23.2374 12.2282 23.1726 13.0769C23.202 13.9287 22.137 14.5038 21.4446 14.0219C20.7245 13.6162 20.7507 12.4349 21.4879 12.0603V12.0602ZM13.9209 16.4295C14.7215 16.0658 15.6689 16.9052 15.434 17.7508C15.2811 18.573 14.1713 18.9166 13.5747 18.3461C12.9504 17.8254 13.1528 16.6969 13.9209 16.4296V16.4295ZM29.3996 16.456C30.1754 16.1808 31.0409 16.9674 30.8369 17.7725C30.7118 18.5528 29.6963 18.9647 29.0719 18.4767C28.3085 17.9916 28.5202 16.6736 29.3996 16.456H29.3996ZM20.7276 16.7559C23.2221 16.0797 26.0334 17.5254 26.9715 19.9378C27.9669 22.2335 27.0797 25.1309 24.9886 26.4801C22.9469 27.9101 19.9439 27.607 18.2191 25.807C16.4851 24.1189 16.1434 21.2263 17.4371 19.1776C18.1666 17.9808 19.369 17.0855 20.7275 16.756L20.7276 16.7559ZM21.1403 18.0989C19.7648 18.3942 18.601 19.4838 18.21 20.8423C17.7787 22.2179 18.1805 23.8065 19.2037 24.8153C20.2238 25.8707 21.8512 26.264 23.2391 25.7946C25.1262 25.2225 26.3503 23.0993 25.8974 21.1687C25.5126 19.0501 23.2175 17.5657 21.1403 18.0989L21.1403 18.0989ZM21.0291 19.4154C21.873 19.0859 22.8729 19.2118 23.6086 19.7465C24.437 20.3262 24.8883 21.3957 24.7291 22.3982C24.6132 23.222 24.1031 23.979 23.3829 24.3878C22.5051 24.91 21.3351 24.8743 20.4943 24.293C19.584 23.7007 19.091 22.5303 19.3182 21.464C19.4897 20.5454 20.1605 19.7449 21.029 19.4154L21.0291 19.4154ZM13.7604 25.4277C14.4776 24.994 15.4914 25.622 15.4219 26.4629C15.4467 27.3084 14.3956 27.8727 13.7017 27.4049C12.9614 26.9945 13 25.7945 13.7604 25.4277ZM29.2127 25.4696C29.9654 25.0733 30.9545 25.7836 30.8093 26.6292C30.7691 27.4841 29.6377 27.9551 28.9948 27.4033C28.3318 26.9291 28.4585 25.782 29.2127 25.4696L29.2127 25.4696ZM21.4681 29.915C22.1821 29.5078 23.165 30.1405 23.0986 30.9627C23.128 31.7881 22.1187 32.3632 21.4232 31.9311C20.6396 31.5425 20.6659 30.2664 21.468 29.9151L21.4681 29.915Z" fill="#00FF00"/>
</svg>
