<svg width="48" height="48" viewBox="0 0 48 48" fill="none" xmlns="http://www.w3.org/2000/svg">
<path d="M35.461 28.2364L35.4418 28.3855C31.0511 26.203 30.5911 25.9124 30.0159 26.7604C29.6228 27.3483 28.4819 28.681 28.1368 29.0748C27.7821 29.463 27.437 29.4936 26.8427 29.224C26.2483 28.9257 24.3214 28.2985 22.0494 26.267C20.2759 24.6829 19.0776 22.7413 18.7325 22.1438C18.1477 21.1362 19.3651 20.9928 20.4868 18.8895C20.6785 18.4718 20.5827 18.1429 20.4293 17.8456C20.2855 17.5473 19.0871 14.619 18.5886 13.4527C18.1093 12.2893 17.6204 12.4365 17.2465 12.4365C16.0961 12.3371 15.2621 12.3533 14.5144 13.1219C11.2933 16.6553 12.1081 20.2996 14.8691 24.1753C20.2855 31.2497 23.1711 32.5528 28.4533 34.3606C29.8817 34.8128 31.1758 34.7497 32.2111 34.6015C33.3519 34.4208 35.739 33.1656 36.2375 31.7622C36.7456 30.3578 36.7456 29.1925 36.5922 28.9238C36.4484 28.6552 36.0553 28.505 35.461 28.2364Z" fill="white"/>
<path d="M41.04 6.8985C25.6608 -7.96678 0.211162 2.81473 0.201562 23.7864C0.201562 27.9787 1.29603 32.0663 3.38883 35.6768L0 48L12.672 44.6957C28.4832 53.2357 47.9904 41.8964 48 23.7989C48 17.4467 45.5232 11.469 41.0112 6.97724L41.04 6.8985ZM44.0064 23.7327C43.9968 38.9983 27.2353 48.5318 13.9777 40.7406L13.2577 40.3125L5.76 42.2622L7.76637 34.9721L7.29598 34.2224C-0.960024 21.0928 8.51522 3.93313 24.144 3.93313C29.4528 3.93313 34.4352 6.00286 38.1888 9.75254C41.9328 13.4705 44.0064 18.4528 44.0064 23.7327Z" fill="white"/>
<path d="M35.461 28.2364L35.4418 28.3855C31.0511 26.203 30.5911 25.9124 30.0159 26.7604C29.6228 27.3483 28.4819 28.681 28.1368 29.0748C27.7821 29.463 27.437 29.4936 26.8427 29.224C26.2483 28.9257 24.3214 28.2985 22.0494 26.267C20.2759 24.6829 19.0776 22.7413 18.7325 22.1438C18.1477 21.1362 19.3651 20.9928 20.4868 18.8895C20.6785 18.4718 20.5827 18.1429 20.4293 17.8456C20.2855 17.5473 19.0871 14.619 18.5886 13.4527C18.1093 12.2893 17.6204 12.4365 17.2465 12.4365C16.0961 12.3371 15.2621 12.3533 14.5144 13.1219C11.2933 16.6553 12.1081 20.2996 14.8691 24.1753C20.2855 31.2497 23.1711 32.5528 28.4533 34.3606C29.8817 34.8128 31.1758 34.7497 32.2111 34.6015C33.3519 34.4208 35.739 33.1656 36.2375 31.7622C36.7456 30.3578 36.7456 29.1925 36.5922 28.9238C36.4484 28.6552 36.0553 28.505 35.461 28.2364Z" fill="white"/>
<path d="M41.04 6.8985C25.6608 -7.96678 0.211162 2.81473 0.201562 23.7864C0.201562 27.9787 1.29603 32.0663 3.38883 35.6768L0 48L12.672 44.6957C28.4832 53.2357 47.9904 41.8964 48 23.7989C48 17.4467 45.5232 11.469 41.0112 6.97724L41.04 6.8985ZM44.0064 23.7327C43.9968 38.9983 27.2353 48.5318 13.9777 40.7406L13.2577 40.3125L5.76 42.2622L7.76637 34.9721L7.29598 34.2224C-0.960024 21.0928 8.51522 3.93313 24.144 3.93313C29.4528 3.93313 34.4352 6.00286 38.1888 9.75254C41.9328 13.4705 44.0064 18.4528 44.0064 23.7327Z" fill="white"/>
</svg>
